<svg width="157" height="35" viewBox="0 0 157 35" xmlns="http://www.w3.org/2000/svg">
<path d="M28.5312 33.6172C28.5052 33.5911 28.4922 33.513 28.4922 33.3828C28.4922 33.2786 28.5052 33.2005 28.5312 33.1484C28.5573 33.0964 28.6094 32.9401 28.6875 32.6797C28.7656 32.4193 28.8568 32.1458 28.9609 31.8594C29.0651 31.5729 29.1562 31.2995 29.2344 31.0391C29.3125 30.7786 29.3646 30.6094 29.3906 30.5312C30.1458 28.1094 30.8099 25.9479 31.3828 24.0469C31.9557 22.1198 32.5026 20.2448 33.0234 18.4219C33.5443 16.599 34.0521 14.724 34.5469 12.7969C35.0677 10.8438 35.6406 8.63021 36.2656 6.15625V5.29688C35.5104 5.03646 34.6901 5.0625 33.8047 5.375C32.9453 5.6875 32.0599 6.19531 31.1484 6.89844C30.237 7.60156 29.3125 8.44792 28.375 9.4375C27.4375 10.401 26.526 11.4297 25.6406 12.5234C24.7552 13.5911 23.8958 14.6589 23.0625 15.7266C22.2292 16.7682 21.4609 17.7318 20.7578 18.6172C20.0547 19.4766 19.4167 20.1927 18.8438 20.7656C18.2969 21.3125 17.8542 21.625 17.5156 21.7031C17.2812 21.7552 16.9948 21.7292 16.6562 21.625C16.3177 21.4948 16.1484 21.3646 16.1484 21.2344V18.5781C16.2266 18.2917 16.3307 17.8359 16.4609 17.2109C16.6172 16.5859 16.7734 15.8828 16.9297 15.1016C17.112 14.3203 17.2943 13.5 17.4766 12.6406C17.6849 11.7812 17.8672 10.9609 18.0234 10.1797C18.2057 9.39844 18.362 8.70833 18.4922 8.10938C18.6224 7.48438 18.7266 7.01562 18.8047 6.70312C18.9349 6.10417 19.0521 5.51823 19.1562 4.94531C19.2865 4.3724 19.3125 3.77344 19.2344 3.14844C18.4531 2.88802 17.6198 3.09635 16.7344 3.77344C15.849 4.42448 14.9375 5.38802 14 6.66406C13.0885 7.9401 12.1641 9.42448 11.2266 11.1172C10.2891 12.8099 9.3776 14.5547 8.49219 16.3516C7.60677 18.1484 6.7474 19.9193 5.91406 21.6641C5.10677 23.4089 4.36458 24.9583 3.6875 26.3125C3.01042 27.6406 2.41146 28.7083 1.89062 29.5156C1.39583 30.2969 1.00521 30.6354 0.71875 30.5312C0.354167 30.4271 0.210938 29.9974 0.289062 29.2422C0.393229 28.487 0.653646 27.5365 1.07031 26.3906C1.48698 25.2188 2.02083 23.9036 2.67188 22.4453C3.32292 20.9609 4.02604 19.4375 4.78125 17.875C5.5625 16.3125 6.35677 14.75 7.16406 13.1875C7.97135 11.625 8.73958 10.1797 9.46875 8.85156C10.1979 7.52344 10.8359 6.36458 11.3828 5.375C11.9557 4.35938 12.3724 3.61719 12.6328 3.14844C13.1797 3.35677 13.6615 3.4349 14.0781 3.38281C14.4948 3.30469 14.8854 3.16146 15.25 2.95312C15.6146 2.74479 15.9661 2.4974 16.3047 2.21094C16.6693 1.92448 17.0729 1.65104 17.5156 1.39062C18.4531 0.817708 19.1953 0.570312 19.7422 0.648438C20.2891 0.726562 20.6797 1.01302 20.9141 1.50781C21.1745 2.0026 21.3047 2.67969 21.3047 3.53906C21.3047 4.3724 21.2396 5.28385 21.1094 6.27344C20.9792 7.26302 20.7969 8.27865 20.5625 9.32031C20.3542 10.3359 20.1458 11.2865 19.9375 12.1719C19.7292 13.0312 19.5469 13.7734 19.3906 14.3984C19.2604 14.9974 19.2083 15.375 19.2344 15.5312C19.4427 15.6354 19.612 15.6224 19.7422 15.4922C19.8984 15.362 20.0286 15.2318 20.1328 15.1016C20.2109 14.9714 20.3932 14.724 20.6797 14.3594C20.9922 13.9948 21.3438 13.5781 21.7344 13.1094C22.125 12.6146 22.5417 12.0938 22.9844 11.5469C23.4271 11 23.8438 10.4922 24.2344 10.0234C24.651 9.52865 25.0026 9.09896 25.2891 8.73438C25.5755 8.36979 25.7708 8.1224 25.875 7.99219C28.1406 6.19531 30.0547 4.86719 31.6172 4.00781C33.2057 3.1224 34.4818 2.6276 35.4453 2.52344C36.4349 2.41927 37.151 2.65365 37.5938 3.22656C38.0365 3.79948 38.2708 4.61979 38.2969 5.6875C38.3229 6.72917 38.1667 7.99219 37.8281 9.47656C37.4896 10.9349 37.0339 12.5104 36.4609 14.2031C36.3828 14.4375 36.2266 14.9323 35.9922 15.6875C35.7839 16.4167 35.5234 17.2891 35.2109 18.3047C34.8984 19.2943 34.5729 20.349 34.2344 21.4688C33.9219 22.5885 33.6094 23.6562 33.2969 24.6719C32.9844 25.6615 32.7109 26.5339 32.4766 27.2891C32.2682 28.0182 32.125 28.5 32.0469 28.7344C32.0469 28.7604 32.0208 28.9297 31.9688 29.2422C31.9167 29.5547 31.8255 29.9323 31.6953 30.375C31.5911 30.7917 31.4609 31.2344 31.3047 31.7031C31.1484 32.1979 30.9531 32.6406 30.7188 33.0312C30.4844 33.4219 30.2109 33.7214 29.8984 33.9297C29.612 34.138 29.2865 34.1771 28.9219 34.0469C28.8958 34.0469 28.8307 33.9818 28.7266 33.8516C28.6224 33.7474 28.5573 33.6693 28.5312 33.6172ZM41.9297 30.5703C41.1484 30.3099 40.5495 29.9193 40.1328 29.3984C39.7422 28.8516 39.4818 28.2526 39.3516 27.6016C39.2214 26.9505 39.1953 26.2734 39.2734 25.5703C39.3776 24.8411 39.5339 24.151 39.7422 23.5C40.5234 22.6667 41.3958 21.7161 42.3594 20.6484C43.349 19.5547 44.3906 18.487 45.4844 17.4453C46.5781 16.4036 47.7109 15.4401 48.8828 14.5547C50.0807 13.6432 51.2917 12.9531 52.5156 12.4844C52.9323 12.3021 53.2578 12.3151 53.4922 12.5234C53.7526 12.7057 53.9349 13.0052 54.0391 13.4219C54.1432 13.8385 54.1823 14.3203 54.1562 14.8672C54.1562 15.4141 54.1172 15.9479 54.0391 16.4688C53.9609 16.9896 53.8568 17.4583 53.7266 17.875C53.5964 18.2917 53.4661 18.5781 53.3359 18.7344C53.0234 19.099 52.4115 19.5286 51.5 20.0234C50.6146 20.5182 49.625 21.0651 48.5312 21.6641C47.4375 22.237 46.3438 22.8359 45.25 23.4609C44.1562 24.0859 43.2578 24.7109 42.5547 25.3359C41.8516 25.9349 41.4349 26.5339 41.3047 27.1328C41.1745 27.7318 41.5391 28.2786 42.3984 28.7734C43.2839 28.8776 44.3516 28.8385 45.6016 28.6562C46.8776 28.4479 48.1667 28.1875 49.4688 27.875C50.7969 27.5365 52.0729 27.1979 53.2969 26.8594C54.5208 26.4948 55.5234 26.2083 56.3047 26L56.7734 26.4297C56.2005 27.1849 55.263 27.875 53.9609 28.5C52.6589 29.125 51.2526 29.6458 49.7422 30.0625C48.2318 30.4531 46.7604 30.7135 45.3281 30.8438C43.8958 30.9479 42.763 30.8568 41.9297 30.5703ZM51.2656 15.6484C51.2396 15.6224 51.0443 15.7396 50.6797 16C50.3151 16.2344 49.8594 16.5599 49.3125 16.9766C48.7917 17.3672 48.2188 17.8099 47.5938 18.3047C46.9948 18.7734 46.4349 19.2161 45.9141 19.6328C45.4193 20.0495 45.0026 20.4141 44.6641 20.7266C44.3255 21.013 44.1823 21.1562 44.2344 21.1562C44.651 21.2344 45.1849 21.1823 45.8359 21C46.513 20.7917 47.2031 20.5052 47.9062 20.1406C48.6354 19.776 49.3255 19.3724 49.9766 18.9297C50.6276 18.4609 51.1354 18.0052 51.5 17.5625C51.8906 17.1198 52.0859 16.7292 52.0859 16.3906C52.112 16.0521 51.8385 15.8047 51.2656 15.6484ZM59.1562 30.5703C59.1302 30.5182 59.1172 30.375 59.1172 30.1406C59.1172 29.9062 59.1302 29.75 59.1562 29.6719C59.2344 29.3854 59.3776 28.8906 59.5859 28.1875C59.7943 27.4583 60.0156 26.7031 60.25 25.9219C60.4844 25.1146 60.7057 24.3594 60.9141 23.6562C61.1224 22.9531 61.2656 22.4583 61.3438 22.1719C61.4479 21.8073 61.5651 21.3906 61.6953 20.9219C61.8255 20.4271 61.8516 19.9583 61.7734 19.5156C61.3828 19.4635 60.901 19.5156 60.3281 19.6719C59.7552 19.8021 59.1823 19.9193 58.6094 20.0234C58.0625 20.1016 57.5417 20.1016 57.0469 20.0234C56.5781 19.9193 56.2396 19.6068 56.0312 19.0859C56.3438 18.4349 56.8125 18.0182 57.4375 17.8359C58.0625 17.6276 58.7396 17.4844 59.4688 17.4062C60.1979 17.3281 60.888 17.2109 61.5391 17.0547C62.2161 16.8984 62.75 16.5469 63.1406 16C63.375 15.3229 63.6484 14.5026 63.9609 13.5391C64.2995 12.5495 64.651 11.5208 65.0156 10.4531C65.3802 9.38542 65.7708 8.33073 66.1875 7.28906C66.6302 6.2474 67.0859 5.32292 67.5547 4.51562C67.8411 4.33333 68.0755 4.32031 68.2578 4.47656C68.4401 4.63281 68.5703 4.86719 68.6484 5.17969C68.7526 5.46615 68.8177 5.76562 68.8438 6.07812C68.8698 6.39062 68.8698 6.59896 68.8438 6.70312C68.6875 7.38021 68.4141 8.10938 68.0234 8.89062C67.6589 9.64583 67.3073 10.4141 66.9688 11.1953C66.6562 11.9766 66.3958 12.7578 66.1875 13.5391C66.0052 14.3203 66.0052 15.0625 66.1875 15.7656H74.5859C74.612 15.7656 74.6771 15.8568 74.7812 16.0391C74.8854 16.1953 74.9766 16.3255 75.0547 16.4297C75.1849 16.7943 75.0417 17.0417 74.625 17.1719C74.2083 17.3021 73.6484 17.3932 72.9453 17.4453C72.2422 17.4714 71.4349 17.4974 70.5234 17.5234C69.638 17.5234 68.7786 17.5885 67.9453 17.7188C67.138 17.8229 66.4089 18.0182 65.7578 18.3047C65.1068 18.5651 64.6641 18.9688 64.4297 19.5156C63.7526 21.2604 63.1276 23.0182 62.5547 24.7891C61.9818 26.5339 61.4349 28.3047 60.9141 30.1016C60.862 30.1797 60.7578 30.3099 60.6016 30.4922C60.4453 30.6484 60.276 30.7917 60.0938 30.9219C59.9115 31.026 59.7292 31.0651 59.5469 31.0391C59.3906 31.013 59.2604 30.8568 59.1562 30.5703ZM75.7188 30.5703C74.9375 30.3099 74.3385 29.9193 73.9219 29.3984C73.5312 28.8516 73.2708 28.2526 73.1406 27.6016C73.0104 26.9505 72.9844 26.2734 73.0625 25.5703C73.1667 24.8411 73.3229 24.151 73.5312 23.5C74.3125 22.6667 75.1849 21.7161 76.1484 20.6484C77.138 19.5547 78.1797 18.487 79.2734 17.4453C80.3672 16.4036 81.5 15.4401 82.6719 14.5547C83.8698 13.6432 85.0807 12.9531 86.3047 12.4844C86.7214 12.3021 87.0469 12.3151 87.2812 12.5234C87.5417 12.7057 87.724 13.0052 87.8281 13.4219C87.9323 13.8385 87.9714 14.3203 87.9453 14.8672C87.9453 15.4141 87.9062 15.9479 87.8281 16.4688C87.75 16.9896 87.6458 17.4583 87.5156 17.875C87.3854 18.2917 87.2552 18.5781 87.125 18.7344C86.8125 19.099 86.2005 19.5286 85.2891 20.0234C84.4036 20.5182 83.4141 21.0651 82.3203 21.6641C81.2266 22.237 80.1328 22.8359 79.0391 23.4609C77.9453 24.0859 77.0469 24.7109 76.3438 25.3359C75.6406 25.9349 75.224 26.5339 75.0938 27.1328C74.9635 27.7318 75.3281 28.2786 76.1875 28.7734C77.0729 28.8776 78.1406 28.8385 79.3906 28.6562C80.6667 28.4479 81.9557 28.1875 83.2578 27.875C84.5859 27.5365 85.862 27.1979 87.0859 26.8594C88.3099 26.4948 89.3125 26.2083 90.0938 26L90.5625 26.4297C89.9896 27.1849 89.0521 27.875 87.75 28.5C86.4479 29.125 85.0417 29.6458 83.5312 30.0625C82.0208 30.4531 80.5495 30.7135 79.1172 30.8438C77.6849 30.9479 76.5521 30.8568 75.7188 30.5703ZM85.0547 15.6484C85.0286 15.6224 84.8333 15.7396 84.4688 16C84.1042 16.2344 83.6484 16.5599 83.1016 16.9766C82.5807 17.3672 82.0078 17.8099 81.3828 18.3047C80.7839 18.7734 80.224 19.2161 79.7031 19.6328C79.2083 20.0495 78.7917 20.4141 78.4531 20.7266C78.1146 21.013 77.9714 21.1562 78.0234 21.1562C78.4401 21.2344 78.974 21.1823 79.625 21C80.3021 20.7917 80.9922 20.5052 81.6953 20.1406C82.4245 19.776 83.1146 19.3724 83.7656 18.9297C84.4167 18.4609 84.9245 18.0052 85.2891 17.5625C85.6797 17.1198 85.875 16.7292 85.875 16.3906C85.901 16.0521 85.6276 15.8047 85.0547 15.6484ZM92.4766 30.5703C91.3828 30.1276 90.6927 29.4635 90.4062 28.5781C90.1458 27.6927 90.1589 26.7161 90.4453 25.6484C90.7318 24.5547 91.2266 23.4349 91.9297 22.2891C92.6328 21.1172 93.4141 20.0495 94.2734 19.0859C95.1328 18.1224 95.9922 17.3151 96.8516 16.6641C97.737 15.987 98.4922 15.6094 99.1172 15.5312C100.732 15.3229 101.995 15.4401 102.906 15.8828C103.844 16.2995 104.482 16.9115 104.82 17.7188C105.159 18.526 105.25 19.4766 105.094 20.5703C104.938 21.638 104.586 22.7188 104.039 23.8125C103.518 24.9062 102.828 25.9609 101.969 26.9766C101.135 27.9922 100.198 28.8516 99.1562 29.5547C98.1406 30.2318 97.0599 30.6875 95.9141 30.9219C94.7682 31.1302 93.6224 31.013 92.4766 30.5703ZM92.0469 28.3438C92.2552 29.1771 92.6979 29.6458 93.375 29.75C94.0521 29.8281 94.8333 29.6589 95.7188 29.2422C96.6302 28.7995 97.5807 28.1745 98.5703 27.3672C99.5599 26.5339 100.458 25.6354 101.266 24.6719C102.099 23.7083 102.776 22.7448 103.297 21.7812C103.844 20.7917 104.104 19.9323 104.078 19.2031C104.078 18.474 103.727 17.9271 103.023 17.5625C102.346 17.1719 101.201 17.0938 99.5859 17.3281C99.2214 17.6667 98.7526 18.0833 98.1797 18.5781C97.6068 19.0469 97.0078 19.5677 96.3828 20.1406C95.7839 20.7135 95.1849 21.3385 94.5859 22.0156C93.987 22.6667 93.4661 23.3438 93.0234 24.0469C92.5807 24.75 92.2552 25.4661 92.0469 26.1953C91.8646 26.9245 91.8646 27.6406 92.0469 28.3438ZM107.32 30.5703C107.268 30.5443 107.268 30.2448 107.32 29.6719C107.398 29.0729 107.503 28.3307 107.633 27.4453C107.763 26.5599 107.932 25.5833 108.141 24.5156C108.349 23.4479 108.57 22.4323 108.805 21.4688C109.039 20.4792 109.286 19.6198 109.547 18.8906C109.833 18.1354 110.107 17.6146 110.367 17.3281C110.549 17.1458 110.732 17.1458 110.914 17.3281C111.096 17.4844 111.279 17.6927 111.461 17.9531C111.643 18.1875 111.826 18.4089 112.008 18.6172C112.19 18.7995 112.385 18.8125 112.594 18.6562C113.323 17.6406 114.117 16.6771 114.977 15.7656C115.862 14.8281 116.839 14.0208 117.906 13.3438C118.01 13.2656 118.297 13.1484 118.766 12.9922C119.234 12.8099 119.768 12.6406 120.367 12.4844C120.966 12.3021 121.578 12.1589 122.203 12.0547C122.854 11.9245 123.401 11.8724 123.844 11.8984C124.312 11.8984 124.625 12.0156 124.781 12.25C124.964 12.4583 124.885 12.8229 124.547 13.3438C122.984 13.3698 121.526 13.8255 120.172 14.7109C118.818 15.5964 117.568 16.6901 116.422 17.9922C115.276 19.2943 114.234 20.7135 113.297 22.25C112.359 23.7604 111.539 25.1667 110.836 26.4688C110.159 27.7708 109.586 28.8516 109.117 29.7109C108.674 30.5703 108.349 31 108.141 31C108.115 31 107.997 30.9479 107.789 30.8438C107.581 30.7135 107.424 30.6224 107.32 30.5703ZM127.398 30.1016C126.773 29.5807 126.422 28.8125 126.344 27.7969C126.292 26.7812 126.435 25.6354 126.773 24.3594C127.138 23.0833 127.659 21.7552 128.336 20.375C129.039 18.9688 129.846 17.6406 130.758 16.3906C131.669 15.1146 132.659 13.9818 133.727 12.9922C134.794 11.9766 135.862 11.2344 136.93 10.7656C137.997 10.2708 139.039 10.1016 140.055 10.2578C141.07 10.388 141.995 10.974 142.828 12.0156C143.349 12.6667 143.661 13.3307 143.766 14.0078C143.87 14.6589 143.857 15.3359 143.727 16.0391C143.596 16.7161 143.388 17.4193 143.102 18.1484C142.815 18.8516 142.529 19.5677 142.242 20.2969C141.982 21.026 141.76 21.7682 141.578 22.5234C141.422 23.2786 141.396 24.0469 141.5 24.8281C141.63 25.8177 142.073 26.4036 142.828 26.5859C143.583 26.7682 144.482 26.7161 145.523 26.4297C146.591 26.1432 147.711 25.6875 148.883 25.0625C150.055 24.4375 151.135 23.8125 152.125 23.1875C153.141 22.5625 153.974 22.0156 154.625 21.5469C155.302 21.0781 155.641 20.8438 155.641 20.8438C156.37 20.6875 156.773 20.7396 156.852 21C156.956 21.2344 156.812 21.599 156.422 22.0938C156.057 22.5625 155.497 23.1094 154.742 23.7344C153.987 24.3333 153.128 24.9193 152.164 25.4922C151.201 26.0651 150.172 26.5859 149.078 27.0547C147.984 27.5234 146.917 27.849 145.875 28.0312C144.833 28.1875 143.844 28.1745 142.906 27.9922C141.995 27.7839 141.24 27.3151 140.641 26.5859C140.354 26.2734 140.133 25.9609 139.977 25.6484C139.846 25.3359 139.625 25.0625 139.312 24.8281C138.922 25.1927 138.453 25.6745 137.906 26.2734C137.359 26.8464 136.76 27.4323 136.109 28.0312C135.484 28.6042 134.807 29.151 134.078 29.6719C133.375 30.1927 132.646 30.5833 131.891 30.8438C131.135 31.1042 130.367 31.1953 129.586 31.1172C128.831 31.0391 128.102 30.7005 127.398 30.1016ZM127.828 28.7734C128.062 29.6068 128.583 29.9974 129.391 29.9453C130.198 29.8672 131.135 29.4635 132.203 28.7344C133.271 28.0052 134.378 27.0156 135.523 25.7656C136.669 24.4896 137.698 23.0833 138.609 21.5469C139.521 19.9844 140.211 18.3438 140.68 16.625C141.174 14.9062 141.305 13.2135 141.07 11.5469C140.445 11.0521 139.664 11.0391 138.727 11.5078C137.789 11.9505 136.786 12.6927 135.719 13.7344C134.677 14.75 133.635 15.974 132.594 17.4062C131.578 18.8125 130.68 20.2448 129.898 21.7031C129.117 23.1354 128.518 24.4896 128.102 25.7656C127.711 27.0417 127.62 28.0443 127.828 28.7734Z" />
</svg>
